<svg
  xmlns="http://www.w3.org/2000/svg"
  viewBox="0 0 200 200"
  class="contour-lines"
>
     <path d="M0,40 C50,30 100,50 150,30 200,50" />
     <path d="M0,70 C50,60 100,80 150,60 200,80" />
     <path d="M0,100 C50,90 100,110 150,90 200,110" />
     <path d="M0,130 C50,120 100,140 150,120 200,140" />
     <path d="M0,160 C50,150 100,170 150,150 200,170" />
     <path d="M0,190 C50,180 100,200 150,180 200,200" />
     <style>
    .contour-lines {
      stroke-width: 1;
      fill: none;
    }
    .contour-lines path {
      stroke: #a0a0a0;
    }
    .dark .contour-lines path {
      stroke: #ffffff;
    }
    .light .contour-lines path {
      stroke: #000000;
    }
  </style>
</svg>